HIERARCHY
ROOT Hips
{
	OFFSET 0.00 0.00 0.00
	CHANNELS 6 Xposition Yposition Zposition Yrotation Xrotation Zrotation
	JOINT LHipJoint
	{
		OFFSET	0.0000	0.0000	0.0000
		CHANNELS 3 Yrotation Xrotation Zrotation
		JOINT LeftUpLeg
		{
			OFFSET	1.0138	-0.0809	-0.0827
			CHANNELS 3 Yrotation Xrotation Zrotation
			JOINT LeftLeg
			{
				OFFSET	0.4110	-3.9095	0.3245
				CHANNELS 3 Yrotation Xrotation Zrotation
				JOINT LeftFoot
				{
					OFFSET	0.3810	-4.0555	-0.1470
					CHANNELS 3 Yrotation Xrotation Zrotation
					JOINT LeftToeBase
					{
						OFFSET	0.1396	-0.4462	1.3079
						CHANNELS 3 Yrotation Xrotation Zrotation
						End Site
						{
							OFFSET 0.0161 -0.0248 0.1809
						}
					}
				}
			}
		}
	}
	JOINT LowerBack
	{
		OFFSET	0.0000	0.7977	-0.3873
		CHANNELS 3 Yrotation Xrotation Zrotation
		JOINT Spine
		{
			OFFSET	0.0000	1.4131	0.1715
			CHANNELS 3 Yrotation Xrotation Zrotation
			JOINT Spine1
			{
				OFFSET	0.0000	1.4392	-0.1032
				CHANNELS 3 Yrotation Xrotation Zrotation
				JOINT LeftShoulder
				{
					OFFSET	0.2274	1.0382	0.4032
					CHANNELS 3 Yrotation Xrotation Zrotation
					JOINT LeftArm
					{
						OFFSET	1.4730	-0.2267	-0.0231
						CHANNELS 3 Yrotation Xrotation Zrotation
						JOINT LeftForeArm
						{
							OFFSET	1.6131	-1.8059	0.0081
							CHANNELS 3 Yrotation Xrotation Zrotation
							JOINT LeftHand
							{
								OFFSET	1.2197	-1.2423	1.6317
								CHANNELS 3 Yrotation Xrotation Zrotation
								JOINT LThumb
								{
									OFFSET	0.0109	-0.0753	0.4387
									CHANNELS 3 Yrotation Xrotation Zrotation
									End Site
									{
										OFFSET -0.2090 -0.0868 0.2097
									}
								}
								JOINT LeftFingerBase
								{
									OFFSET	0.1071	-0.1567	0.2607
									CHANNELS 3 Yrotation Xrotation Zrotation
									JOINT LeftHandFinger1
									{
										OFFSET	0.1706	-0.2492	0.6830
										CHANNELS 3 Yrotation Xrotation Zrotation
										End Site
										{
											OFFSET 0.0335 -0.1507 0.2071
										}
									}
								}
							}
						}
					}
				}
				JOINT Neck
				{
					OFFSET	0.0000	1.7498	0.2381
					CHANNELS 3 Yrotation Xrotation Zrotation
					JOINT Neck1
					{
						OFFSET	0.0000	0.5043	0.1959
						CHANNELS 3 Yrotation Xrotation Zrotation
						JOINT Head
						{
							OFFSET	0.0000	0.5044	0.1959
							CHANNELS 3 Yrotation Xrotation Zrotation
							End Site
							{
								OFFSET 0.0000 1.4798 -0.0693
							}
						}
					}
				}
				JOINT RightShoulder
				{
					OFFSET	-0.2274	1.0382	0.4032
					CHANNELS 3 Yrotation Xrotation Zrotation
					JOINT RightArm
					{
						OFFSET	-1.4730	-0.2267	-0.0231
						CHANNELS 3 Yrotation Xrotation Zrotation
						JOINT RightForeArm
						{
							OFFSET	-1.6131	-1.8059	0.0081
							CHANNELS 3 Yrotation Xrotation Zrotation
							JOINT RightHand
							{
								OFFSET	-1.2197	-1.2423	1.6317
								CHANNELS 3 Yrotation Xrotation Zrotation
								JOINT RThumb
								{
									OFFSET	-0.0109	-0.0753	0.4387
									CHANNELS 3 Yrotation Xrotation Zrotation
									End Site
									{
										OFFSET 0.2090 -0.0868 0.2097
									}
								}
								JOINT RightFingerBase
								{
									OFFSET	-0.1071	-0.1567	0.2607
									CHANNELS 3 Yrotation Xrotation Zrotation
									JOINT RightHandFinger1
									{
										OFFSET	-0.1706	-0.2492	0.6830
										CHANNELS 3 Yrotation Xrotation Zrotation
										End Site
										{
											OFFSET -0.0335 -0.1507 0.2071
										}
									}
								}
							}
						}
					}
				}
			}
		}
	}
	JOINT RHipJoint
	{
		OFFSET	0.0000	0.0000	0.0000
		CHANNELS 3 Yrotation Xrotation Zrotation
		JOINT RightUpLeg
		{
			OFFSET	-1.0138	-0.0809	-0.0827
			CHANNELS 3 Yrotation Xrotation Zrotation
			JOINT RightLeg
			{
				OFFSET	-0.4110	-3.9095	0.3245
				CHANNELS 3 Yrotation Xrotation Zrotation
				JOINT RightFoot
				{
					OFFSET	-0.3810	-4.0555	-0.1470
					CHANNELS 3 Yrotation Xrotation Zrotation
					JOINT RightToeBase
					{
						OFFSET	-0.1396	-0.4462	1.3079
						CHANNELS 3 Yrotation Xrotation Zrotation
						End Site
						{
							OFFSET -0.0161 -0.0248 0.1809
						}
					}
				}
			}
		}
	}
}
MOTION
Frames: 11
Frame Time: 0.0333333
0.1353 7.3000 0.2016 -11.6115 -7.1946 7.1029 0.0000 -0.0000 0.0000 9.4083 -36.5772 -10.1981 16.4372 40.0353 9.9937 4.7953 2.7424 3.1714 0.0000 -4.8022 -0.0000 0.0000 -0.0000 0.0000 5.0293 7.0976 -1.0329 9.5349 14.2679 -1.5707 7.4754 0.2164 0.1875 -49.5717 25.0047 -48.2849 8.0401 10.0601 -1.3484 30.5543 -14.6542 -5.4749 42.2709 7.5847 22.5932 -6.8891 22.8060 -11.2898 -4.8415 -5.2966 -1.3030 -0.6940 -5.6054 -0.5185 -0.6939 -5.6053 -0.5186 -3.9732 -20.0351 2.0587 -6.7290 0.3221 0.3329 74.9615 -17.6120 -13.7113 12.0621 -12.0234 0.5787 -20.7877 -6.2083 -5.2569 -42.5609 7.1319 -22.4794 6.8731 22.8240 11.2851 4.8300 -5.2840 1.3003 0.0000 -0.0000 0.0000 -9.8880 8.3071 -19.1775 -2.4975 55.6235 1.3825 19.5816 -23.2313 -11.8813 -0.0186 -45.2616 0.3083 
0.1931 7.3237 0.2511 -12.6471 -5.5663 7.6543 0.0000 -0.0000 0.0000 9.9014 -37.4013 -11.3748 17.8849 42.6322 11.3995 5.0560 -0.5580 2.4433 -0.0000 -4.9959 -0.0000 0.0000 -0.0000 0.0000 5.6817 6.4766 -1.3876 10.8186 13.0647 -2.2362 8.0236 0.1779 -0.5070 -48.8057 27.5914 -44.8783 5.6851 7.4962 -1.6608 29.1285 -13.2474 -4.2693 42.2709 7.5847 22.5931 -6.8891 22.8060 -11.2898 -4.8415 -5.2966 -1.3029 -0.7624 -5.5823 -1.0192 -0.7624 -5.5823 -1.0192 -5.5444 -18.6845 4.2295 -6.1653 0.3533 0.0707 73.0556 -15.3105 -10.2045 11.6149 -11.5558 0.6788 -20.4636 -5.6822 -4.8006 -42.5609 7.1319 -22.4794 6.8731 22.8239 11.2852 4.8300 -5.2840 1.3003 0.0000 -0.0000 0.0000 -8.7633 5.7112 -20.8576 -8.9823 57.5201 -4.0035 17.3726 -11.7334 -7.5939 -0.7445 -62.7019 1.7638 
0.2347 7.3268 0.2661 -13.2222 -4.4099 7.9767 0.0000 -0.0000 0.0000 10.4446 -37.8167 -12.4719 19.7110 45.3575 13.1462 4.4403 -4.3275 1.9136 0.0000 -5.4648 0.0000 0.0000 -0.0000 0.0000 6.0092 6.1176 -1.7729 11.4360 12.3510 -2.7440 8.6349 0.1344 -1.0734 -46.2122 28.8576 -39.9892 4.2274 5.8888 -1.8012 27.9604 -11.9752 -3.5246 42.2709 7.5847 22.5932 -6.8891 22.8060 -11.2898 -4.8415 -5.2966 -1.3030 -0.7488 -5.8829 -1.4456 -0.7488 -5.8829 -1.4456 -6.4699 -17.2010 5.9872 -5.5708 0.3927 -0.0701 71.3836 -12.9285 -6.7504 10.8942 -10.7972 0.8326 -20.1821 -5.2107 -4.3461 -42.5609 7.1319 -22.4794 6.8731 22.8240 11.2851 4.8300 -5.2840 1.3003 0.0000 -0.0000 0.0000 -7.5325 3.3039 -20.5744 11.6057 59.3338 13.7539 13.2601 3.9753 -6.9562 -177.3246 -71.9491 -134.7742 
0.2615 7.3248 0.2622 -13.1909 -3.9598 8.1026 0.0000 -0.0000 0.0000 10.8850 -37.5213 -13.4016 21.5368 47.7947 14.9059 3.2482 -7.7787 1.7517 0.0000 -7.1147 0.0000 0.0000 -0.0000 0.0000 5.8639 6.0647 -2.0884 11.0928 12.2180 -3.0288 9.0447 0.1017 -1.3147 -43.0077 27.9395 -34.8782 4.0654 5.7093 -1.8143 27.5573 -11.4792 -3.4081 42.2709 7.5847 22.5931 -6.8891 22.8060 -11.2898 -4.8415 -5.2966 -1.3030 -0.6495 -6.4743 -1.7206 -0.6495 -6.4744 -1.7206 -6.6455 -15.9420 7.0805 -4.8729 0.4427 -0.1266 70.0764 -10.9218 -3.6880 9.5514 -9.3684 1.0942 -20.0595 -4.9361 -3.9363 -42.5609 7.1319 -22.4794 6.8731 22.8240 11.2852 4.8300 -5.2840 1.3003 0.0000 -0.0000 0.0000 -5.2973 0.0105 -19.7790 12.1311 61.7062 14.5406 9.2868 19.5539 1.5767 128.0583 -15.6037 -53.5796 
0.2794 7.3317 0.2561 -12.6306 -4.0616 8.0653 0.0000 -0.0000 0.0000 11.0776 -36.4356 -14.0591 22.8883 49.6630 16.2467 2.0197 -10.8551 1.8961 -0.0000 -9.1109 -0.0000 0.0000 -0.0000 0.0000 5.2092 6.1625 -2.2788 9.7639 12.3783 -3.1442 9.1664 0.0871 -1.2223 -40.5124 25.1767 -30.7627 5.2699 7.0396 -1.7049 28.0360 -11.8934 -3.9365 42.2709 7.5847 22.5932 -6.8891 22.8060 -11.2898 -4.8415 -5.2966 -1.3029 -0.4538 -7.1140 -1.8602 -0.4538 -7.1140 -1.8602 -6.1535 -15.0676 7.5581 -4.0115 0.5053 -0.1671 69.0387 -9.5463 -0.9251 7.2095 -6.8340 1.4712 -20.2205 -4.9865 -3.5408 -42.5609 7.1319 -22.4794 6.8731 22.8240 11.2852 4.8300 -5.2840 1.3003 0.0000 -0.0000 0.0000 -2.5560 -4.2418 -18.8186 12.6142 68.4945 16.0811 6.5709 23.5095 2.5635 19.8675 -47.4183 30.4764 
0.2937 7.3451 0.2474 -11.7488 -4.3587 7.8907 0.0000 -0.0000 0.0000 10.9602 -34.9743 -14.3989 23.7966 51.1108 17.1924 1.1135 -13.6573 2.1008 -0.0000 -10.5823 0.0000 0.0000 -0.0000 0.0000 4.1751 6.2055 -2.3524 7.7217 12.4376 -3.1743 9.1262 0.0875 -0.9562 -39.3160 21.5736 -27.8096 7.6364 9.6239 -1.4093 28.9483 -12.6260 -4.9862 42.2709 7.5847 22.5931 -6.8891 22.8060 -11.2898 -4.8415 -5.2966 -1.3030 -0.1842 -7.5126 -1.9193 -0.1842 -7.5126 -1.9193 -5.2064 -14.5593 7.6449 -3.0986 0.5709 -0.2326 67.9237 -8.8360 1.8939 3.8658 -3.1447 1.8301 -20.7355 -5.4272 -3.1037 -42.5609 7.1319 -22.4794 6.8731 22.8240 11.2851 4.8300 -5.2840 1.3003 0.0000 -0.0000 0.0000 -0.1171 -9.5879 -17.6725 16.2367 75.3433 20.6666 4.7774 23.8950 -0.4997 -0.0000 -42.2645 0.0000 
0.3060 7.3561 0.2284 -10.6951 -4.6243 7.5965 0.0000 -0.0000 0.0000 10.5832 -33.5365 -14.4572 24.6181 52.3320 18.0536 0.4761 -16.2558 2.2151 0.0000 -11.4463 0.0000 0.0000 -0.0000 0.0000 2.9730 6.1103 -2.3508 5.4016 12.2296 -3.1415 9.1305 0.0877 -0.7150 -39.3767 17.9238 -25.2523 10.7306 12.9246 -0.8652 29.5063 -12.7182 -6.2083 42.2709 7.5847 22.5931 -6.8891 22.8060 -11.2898 -4.8415 -5.2966 -1.3030 0.1086 -7.5449 -1.9496 0.1086 -7.5449 -1.9496 -4.0698 -14.3062 7.6001 -2.3907 0.6206 -0.3245 66.2575 -8.5785 4.9846 0.0150 1.1583 1.9756 -21.5319 -6.1790 -2.6059 -42.5609 7.1319 -22.4794 6.8731 22.8240 11.2851 4.8300 -5.2840 1.3003 0.0000 -0.0000 0.0000 1.6521 -15.8706 -16.4957 20.3139 80.4303 25.4806 4.0602 23.3799 -4.6962 -0.0000 -37.3985 -0.0000 
0.3155 7.3586 0.1984 -9.5264 -4.9029 7.1350 0.0000 -0.0000 0.0000 10.0870 -32.2563 -14.2144 25.3704 53.6527 18.8822 -0.0079 -18.6605 2.2818 0.0000 -12.0655 -0.0000 0.0000 -0.0000 0.0000 1.8128 5.9541 -2.2741 3.2094 11.9083 -3.0217 9.2982 0.0734 -0.6102 -40.4109 14.5272 -22.2749 13.9339 16.2217 -0.1203 29.1498 -11.6414 -7.1583 42.2709 7.5847 22.5931 -6.8891 22.8060 -11.2898 -4.8415 -5.2966 -1.3029 0.3770 -7.3145 -1.9660 0.3770 -7.3145 -1.9660 -2.9815 -14.1818 7.6018 -2.1095 0.6395 -0.3998 63.7386 -8.3258 8.1570 -3.5879 5.1797 1.8499 -22.3578 -6.9721 -2.0978 -42.5610 7.1319 -22.4794 6.8731 22.8240 11.2852 4.8300 -5.2840 1.3003 0.0000 -0.0000 0.0000 2.5786 -22.5143 -15.2574 20.9538 83.3133 26.5372 4.2467 21.9813 -8.1642 -0.0000 -38.4403 0.0000 
0.3218 7.3536 0.1634 -8.2879 -5.3630 6.4466 0.0000 -0.0000 0.0000 9.6557 -31.1054 -13.5985 25.6682 55.5109 19.3914 -0.2791 -20.6111 2.4247 0.0000 -12.5949 -0.0000 0.0000 -0.0000 0.0000 0.8381 5.8713 -2.1129 1.4037 11.7407 -2.8096 9.5857 0.0477 -0.6268 -42.0651 11.3827 -18.6812 16.5867 18.8421 0.6294 28.0482 -9.8285 -7.6435 42.2709 7.5847 22.5931 -6.8891 22.8060 -11.2898 -4.8415 -5.2966 -1.3030 0.5854 -7.0231 -1.9248 0.5854 -7.0232 -1.9248 -2.1005 -14.0891 7.6892 -2.3019 0.6268 -0.3712 60.4635 -7.5902 10.9381 -6.3057 8.1762 1.5886 -22.9048 -7.4728 -1.6831 -42.5609 7.1319 -22.4794 6.8731 22.8240 11.2852 4.8300 -5.2840 1.3003 0.0000 -0.0000 0.0000 2.4921 -28.7416 -13.7505 13.6548 83.8302 19.3382 5.1577 19.4665 -9.9301 2.6702 -46.7655 28.4056 
0.3260 7.3465 0.1276 -7.0825 -6.0580 5.5522 0.0000 -0.0000 0.0000 9.3657 -29.6942 -12.5902 25.2476 57.5472 19.2595 -0.4983 -22.5424 2.7440 0.0000 -13.1078 -0.0000 0.0000 -0.0000 0.0000 0.1164 5.9202 -1.8887 0.0907 11.8389 -2.5451 9.8329 0.0262 -0.6634 -43.9415 8.3560 -14.8893 18.2114 20.3926 1.1453 27.0234 -8.3606 -7.8006 42.2709 7.5847 22.5932 -6.8891 22.8060 -11.2898 -4.8415 -5.2966 -1.3030 0.6964 -6.7909 -1.7437 0.6964 -6.7910 -1.7437 -1.5006 -13.9742 7.7860 -2.8476 0.5952 -0.1581 56.8565 -6.1578 12.9462 -7.9248 9.9357 1.3661 -23.0447 -7.5513 -1.4497 -42.5609 7.1319 -22.4794 6.8731 22.8240 11.2851 4.8300 -5.2840 1.3003 0.0000 -0.0000 0.0000 1.3243 -34.0218 -11.7983 5.0365 81.8793 10.5668 6.6454 16.2370 -9.9680 31.4194 -76.3139 57.8145 
0.3291 7.3387 0.0893 -6.0241 -6.8638 4.5877 0.0000 -0.0000 0.0000 9.2140 -28.0979 -11.3515 24.4425 59.5600 18.7373 -0.7124 -24.3601 3.1380 0.0000 -13.7515 0.0000 0.0000 -0.0000 0.0000 -0.3523 6.0444 -1.6449 -0.7460 12.0874 -2.3018 9.8796 0.0223 -0.6104 -45.6490 5.2573 -11.5015 18.6303 20.7853 1.2850 26.8665 -8.1141 -7.8434 42.2709 7.5847 22.5931 -6.8891 22.8060 -11.2898 -4.8415 -5.2966 -1.3030 0.6778 -6.5992 -1.3739 0.6778 -6.5992 -1.3739 -1.1848 -13.8148 7.7901 -3.5577 0.5613 0.2274 53.3651 -4.2321 14.1954 -8.7184 10.7895 1.2392 -22.9531 -7.4189 -1.3992 -42.5609 7.1319 -22.4794 6.8731 22.8240 11.2852 4.8300 -5.2840 1.3003 0.0000 -0.0000 0.0000 -0.4159 -38.7625 -9.7155 -0.9414 79.6556 4.4509 8.9762 8.5195 -9.4924 -12.2972 -68.6938 30.0176 
